<?xml version="1.0" encoding="UTF-8" standalone="no"?>
<svg
   xmlns:dc="http://purl.org/dc/elements/1.1/"
   xmlns:cc="http://creativecommons.org/ns#"
   xmlns:rdf="http://www.w3.org/1999/02/22-rdf-syntax-ns#"
   xmlns:svg="http://www.w3.org/2000/svg"
   xmlns="http://www.w3.org/2000/svg"
   xmlns:sodipodi="http://sodipodi.sourceforge.net/DTD/sodipodi-0.dtd"
   xmlns:inkscape="http://www.inkscape.org/namespaces/inkscape"
   sodipodi:docname="sf_map.svg"
   inkscape:version="1.0beta1 (32d4812, 2019-09-19)"
   id="sf-map"
   version="1.1"
   viewBox="0 0 325 334"
   height="334pt"
   width="325pt">
  <metadata id="metadata16352">
    <rdf:RDF>
      <cc:Work
         rdf:about="">
        <dc:format>image/svg+xml</dc:format>
        <dc:type
           rdf:resource="http://purl.org/dc/dcmitype/StillImage" />
        <dc:title />
      </cc:Work>
    </rdf:RDF>
  </metadata>
  <g id="districts">
    <path
       class="district"
       inkscape:connector-curvature="0"
       id="marina"
       d="M 171.34375,94.658441 171.0625,96 l 0.15625,1.595841 0.21875,0.75 0.78125,1.247809 3.8125,4.3125 2.875,25.71875 c -4.1779,1.06302 -45.74569,12.09167 -49.96875,13.43969 l 1,3.74781 -1.625,-0.0624 0.0625,1.25 18.65625,-1.125 0.3125,4 35.03125,-5.6875 32.59375,-5.21875 23.6875,-3.78125 L 230.875,86.625 c 0,0 -0.63471,-0.495351 -0.75,-0.6875 -0.11529,-0.192148 -0.01,-0.533781 -0.125,-0.6875 -0.11529,-0.153718 -0.80785,-1.024484 -1,-1.5625 -0.19215,-0.538016 -1.04814,-2.442562 -1.125,-2.75 -0.0456,-0.182227 -0.0824,-0.395517 -0.125,-0.59375 l -0.15625,0.0625 -0.28125,-0.28125 -1.375,-1.5 -0.0625,-0.25 -1.25,0.1875 0.0937,0.5 1.15625,-0.25 1.4375,1.59375 h -0.21875 l -0.9375,-0.125 -0.875,-0.09375 -0.9375,-0.375 -0.5,0.1875 -1,0.46875 -1.21875,0.625 -1.46875,0.25 -0.71875,-4.3125 -1.21875,0.15625 0.4375,3.5 0.28125,1.96875 -1.65625,0.25 -0.8125,-5.375 h -0.90625 l 0.75,5.40625 -0.1875,0.1875 -1.46875,0.25 -0.375,-2.25 -0.0625,-0.375 -0.3125,-1.625 -0.71875,0.125 0.375,2.4375 0.21875,1.5 0.65625,4.03125 -0.15625,0.03125 -0.375,0.09375 -0.21875,0.0625 -0.21875,0.125 -0.25,0.28125 -0.0312,0.1875 -2.9375,0.46875 -0.1875,-0.8125 -0.15625,-0.9375 -0.1875,-0.9375 -0.15625,-0.96875 -0.21875,-0.78125 -0.53125,0.03125 -2.4375,0.34375 -0.5625,0.03125 -0.21875,-1.3125 -0.15625,-0.78125 -5.46875,0.6875 -5.40625,0.875 -5.96875,0.96875 0.34375,2.0625 -0.25,0.28125 -10.59375,1.75 -0.5625,-3.53125 6.75,-2.625 1.59375,-0.40625 4.0625,-0.71875 0.5625,-0.59375 3.71875,-0.78125 0.9375,-2 -0.40625,-0.09375 -1,1.25 -0.59375,0.53125 -3.375,0.59375 -1.34375,0.15625 -1.5625,0.6875 -1.34375,0.28125 -2.46875,0.34375 -1.1875,-0.09375 -4.875,0.65625 -1.84375,1.5625 -0.4375,0.34375 L 174.25,84.75 173.34375,84.8125 H 172.875 l 0.77706,3.101447 c 0.15201,1.688799 -1.35479,4.674619 -2.30831,6.744494 z"
       transform="scale(0.8)" />
    <path
       class="district"
       d="m 279.65625,84.90625 0.79059,0.574918 2.01158,1.369552 6.55828,6.093595 c -0.0289,-0.03878 6.31075,9.010845 6.31075,9.010845 l 9.8913,14.01359 1,-1 -0.25,-0.3125 0.5625,-0.4375 -0.375,-0.46875 -0.53125,0.375 -0.28125,-0.375 4.875,-3.5625 -0.6875,-0.9375 -5,3.46875 -1.96875,-2.625 -0.375,-0.53125 -2.15625,-3.15625 0.28125,-0.40625 5.125,-3.53125 -0.75,-1 -5.5625,3.6875 -0.9375,-1.3125 5.5625,-4 -2.375,-3.46875 -3.90625,2.71875 -1.75,1.21875 -0.9375,-1.3125 5.5625,-3.96875 -0.8125,-1.0625 -2.0625,1.4375 -2.375,1.65625 -0.875,-1.25 3.25,-2.4375 1.125,-0.84375 -0.8125,-1.125 -0.3125,0.21875 -4.5,3.375 -0.96875,0.125 -0.25,-0.40625 1.46875,-11.59375 -1.40625,-1.21875 -1.03125,1.125 v 0.03125 l -3.5625,3.9375 -1.53125,-1.4375 2.71875,-4.21875 -1.03125,-0.65625 -2.96875,4.59375 -1,-0.65625 -0.9375,-0.59375 2,-5.59375 -1.21875,-0.46875 -2,5.625 -0.375,0.75 -1.42076,-0.876415 -0.51674,-9.092335 -1.71875,0.09375 0.4375,6.90625 -1.75,-0.75 -0.25,0.46875 0.0312,-0.34375 -0.21875,-0.53125 -0.28125,-0.0625 -0.3125,0.03125 -0.375,0.125 -0.9375,-0.46875 -0.125,-0.3125 -1.375,-0.53125 -0.75,-1.375 0.0312,-0.3125 -0.875,-0.21875 -0.40625,-0.28125 -0.1875,-0.4375 -0.6875,-1.5 -0.3125,-0.65625 0.15625,-0.8125 0.25,-1.59375 0.0937,-0.375 -0.5,-1.0625 -0.625,-0.21875 -0.40625,0.125 -0.1875,-0.0625 -0.625,0.28125 -0.78125,0.5 -0.1875,0.5625 0.40625,1.21875 0.65625,1.125 0.125,0.3125 0.21875,0.625 0.3125,0.53125 0.4375,0.9375 0.1875,0.40625 L 268.0936,78.375 266.125,78 265,76.3125 l -2.375,-3.59375 -0.25,0.21875 2.3125,3.5 -0.40625,0.28125 -0.75,0.5 -0.375,0.25 -0.28125,-0.0625 -1.0625,-0.59375 -0.6875,-0.4375 -0.28125,0.59375 -1.3125,-0.65625 -0.28125,-0.125 -1.28125,-0.28125 -1.71875,-0.875 -0.125,0.25 1.40625,1.21875 v 0.25 l -0.875,0.46875 -0.5625,-0.0625 -0.4375,-0.34375 L 251.4375,73.28125 247.5,69.9375 247.34375,69.875 246.125,69.84375 245.90625,70.125 246.3125,70.59375 246.75,71 246.34375,71.5 245.125,70.84375 244.625,70.5 243.6875,69.71875 243.03125,70.5 l 4.3125,3.59375 3.65625,3.125 -0.0937,0.6875 2.96875,0.125 -0.0625,1.21875 -0.25,0.0625 0.0625,0.4375 -0.15625,0.03125 0.0312,0.1875 L 251.09375,80.375 251,79.75 l -0.6875,0.09375 0.4375,-0.25 0.0312,-0.65625 H 250.25 l -0.25,-0.21875 -0.1875,-1.125 -0.375,-0.3125 -0.625,-0.25 -0.1875,0.40625 -1.28125,-0.03125 -0.53125,-0.25 V 77.375 l -2.125,-0.09375 v 0.78125 h 2.625 l 2.3125,0.09375 0.15625,0.6875 -3.46875,0.5625 -2.9375,0.4375 -0.21875,-1.34375 -0.5625,0.25 -1.09375,-1.65625 -0.15625,0.1875 -1.8125,-1.78125 -0.84375,-1 -0.40625,-0.375 -0.75,-0.5625 -0.0937,0.4375 1.1875,1.0625 0.59375,0.75 0.65625,0.6875 0.71875,0.75 1.125,0.96875 0.1875,0.78125 -1.1875,1.4375 -0.40625,0.375 -0.40625,0.40625 -0.40625,0.40625 -0.40625,0.40625 -0.40625,0.40625 -0.40625,0.375 -0.4375,0.34375 L 237.375,83.5 236.90625,83.75 236,84.46875 l -0.6875,0.375 -1.03125,0.28125 -1.40625,-0.09375 -1.15625,-0.5 -1.46875,-0.90625 -0.90625,-0.75 -0.71875,-1.25 -0.25,-1.84375 -0.25,-2.28125 0.5,-2.09375 0.375,-0.6875 0.375,-0.5625 0.34375,-0.375 0.5,-0.4375 L 230.75,73 l 0.46875,-0.21875 0.5625,-0.15625 0.40625,-0.0625 0.40625,-0.0625 0.1875,0.0625 0.15625,0.28125 0.0937,0.21875 0.3125,0.21875 H 233.5 l 0.1875,-0.0625 0.1875,-0.3125 0.0937,-0.1875 -0.21875,-0.3125 -0.53125,-0.3125 -0.4375,-0.0625 h -0.375 L 231.875,72.0625 231.28125,72.25 230.6875,72.40625 230.21875,72.6875 229.75,73 l -0.375,0.34375 -0.375,0.4375 -0.34375,0.4375 -0.21875,0.46875 -0.46875,1 -0.25,0.65625 -0.0625,0.625 -0.0312,0.8125 V 78.625 l 0.0937,0.71875 0.15625,0.59375 v 0.34375 l -0.125,0.0625 c 0.0391,0.19847 0.0794,0.411522 0.125,0.59375 0.0769,0.307437 0.93285,2.211984 1.125,2.75 0.19215,0.538016 0.88471,1.408782 1,1.5625 0.11525,0.153719 0.01,0.495352 0.125,0.6875 0.11525,0.192149 0.75,0.6875 0.75,0.6875 l 0.96875,6.0625 47.03656,-7.605564 m -11.31781,19.386814 0.15625,0.0312 0.0625,0.125 -0.125,0.0625 -0.125,-0.0625 c 0.0103,-0.052 0.0209,-0.10437 0.0312,-0.1562 z"
       transform="scale(0.8)"
       id="fishermans-warf"/>
    <path
       class="district"
       id="fidi"
       transform="scale(0.8)"
       d="m 311.09375,111.34375 -4.8125,3.6875 -0.0625,-0.0625 -1,1 -0.875,0.65625 -2.59375,0.65625 -4.03125,0.75 L 285.75,120 l -3.90625,0.65625 2.71875,17.15625 -11.84375,1.96875 v -0.0312 l -4.03125,0.625 3,18.3125 31.21875,-31.25 0.15625,0.375 3.59375,3.6875 6.09375,-6 1.84375,1.5625 0.3125,-0.21875 -0.25,-0.34375 0.28125,-0.1875 -0.875,-1.15625 0.6875,-0.53125 -0.625,-0.9375 0.3125,-0.21875 0.375,-0.40625 -0.625,-0.8125 -0.65625,0.46875 -0.15625,-0.0937 -0.34375,-0.4375 2.96875,-3.03125 -1,-1.34375 -1.03125,0.5625 -1.15625,0.71875 -0.25,0.15625 -1,0.5 -1.09375,-1.46875 0.21875,-0.1875 -0.15625,-0.21875 -0.25,0.15625 -0.71875,-1 1.6875,-1.21875 -0.1875,-0.21875 -2.875,2.15625 -0.21875,-0.28125 1.25,-1 -0.59375,-0.75 -1.125,0.75 -0.125,-0.1875 0.84375,-0.59375 -0.15625,-0.28125 1.46875,-1.09375 0.9375,-0.90625 1.40625,-1.0625 -0.78125,-1 z" />
    <path
       class="district"
       id="nob-russian"
       d="m 200.9,71.65 -15.425,2.5 5.425,34.7 0.225,0.1 0.95,7.025 22.925,-3.725 3.175,-0.45 -4.6,-29.275 z" />
    <path
       class="district"
       id="civic-center-tenderloin"
       d="m 270.375,140.09375 -1.625,0.21875 -28.5,4.625 -0.0312,0.0625 -4.03125,0.65625 6.53125,41.625 4.03125,-3.59375 24.90625,-25.125 -2.96875,-18.1875 1.6875,-0.25 v -0.0312 z m -34.1875,5.5625 h -0.0937 l 6.625,42.03125 -6.53125,-42.03125 z"
       transform="scale(0.8)" />
    <path
       class="district"
       id="soma"
       transform="scale(0.8)"
       d="m 312.75,125.5 -6.09375,6 -3.59375,-3.6875 -0.15625,-0.375 -31.21875,31.25 -0.0312,-0.125 -24.90625,25.125 -4.03125,3.59375 -0.0312,-0.15625 -0.0625,0.0625 -6.5,6.5 c 0,0 3.07174,5.84881 5.53125,6.15625 2.4595,0.30743 8.90625,0.3125 8.90625,0.3125 0,0 3.06075,1.53125 6.75,1.53125 3.68925,0 11.08781,-0.32857 12.625,0.59375 1.53719,0.92231 6.75,1.25 6.75,1.25 l 2.78125,2.75 1.53125,1.53125 0.625,4.625 0.28125,0.3125 48.4375,-3.65625 0.1875,-0.0312 0.0937,-2.375 0.65625,-2.5625 -0.625,-2.1875 -0.28125,-0.46875 -0.3125,-1.875 5.375,2.6875 L 335.875,201 329.6875,197.90625 329.96875,197 l 0.375,-1.1875 -0.8125,-0.0625 -0.25,1.6875 -1.375,-2.375 L 326.75,191.59375 327.46875,191.25 327,189.8125 l 4.9375,-0.34375 8.1875,4.65625 -0.6875,-6.46875 0.6875,-0.40625 -0.84375,-1.09375 -0.0625,-0.59375 -10.53125,0.8125 -2.0625,0.0937 -0.21875,-2.34375 5.3125,-0.84375 -0.25,-3.03125 -5.28125,0.625 -0.0937,-0.6875 h -0.40625 l -0.0937,-0.875 -0.5625,-0.5 -5.40625,0.59375 -0.65625,0.53125 -0.46875,0.53125 -0.96875,0.9375 -3.46875,3.34375 -0.21875,-0.125 -0.5,0.5 0.0312,0.34375 -15.25,14.59375 -0.65625,-0.625 -0.5,-0.53125 0.5,-0.5 2.34375,-2.375 3.53125,-3.21875 0.15625,-0.25 -0.0312,-0.25 0.15625,-0.21875 6.84375,-6.71875 0.8125,-0.84375 0.90625,-0.40625 0.5625,-0.59375 0.5625,-0.5 0.21875,-0.375 0.40625,-0.28125 1.0625,-1 0.25,-0.40625 0.375,-0.21875 0.96875,-1 0.28125,-0.34375 0.3125,-0.25 0.625,-0.5625 0.15625,-0.53125 0.25,-0.5 6.78125,-3.25 0.375,-0.15625 -0.0937,-0.25 -0.59375,-8.6875 v -1.0625 l 1.125,-0.0937 4.34375,-0.3125 -0.0937,-0.59375 -0.0312,-0.53125 -5.46875,0.375 -0.0937,-1.53125 0.65625,-0.15625 4.9375,-0.40625 2.03125,-0.28125 -0.0312,-1 -6.53125,0.5 -1.09375,-0.46875 0.0937,-1.1875 0.5,-0.25 3.21875,-0.25 -0.15625,-1.65625 -3.4375,0.28125 0.34375,-5 0.59375,-0.21875 7.375,-0.5625 -0.40625,-5.28125 -7.1875,0.46875 0.0312,-1.5 0.28125,-0.15625 5.40625,-1.125 -0.28125,-1.25 -4.5,0.9375 -0.375,-1.78125 5.1875,-1.53125 -0.5,-1.65625 -5.09375,1.59375 -0.6875,-1.65625 -1.25,0.5625 -0.40625,-0.40625 -0.3125,-0.5 0.5,-0.21875 -0.5625,-1.1875 -0.4375,0.1875 -0.75,-1.71875 0.28125,-0.40625 -0.875,-0.9375 -1.1875,-1.21875 -1.25,-1.34375 -1.25,-1.3125 -1.3125,-1.4375 -1.09375,-1.0625 -0.0312,-0.0312 -0.3125,0.21875 z m 16.375,8.96875 -1.28125,0.65625 0.0937,0.1875 0.90625,0.71875 1.25,-0.40625 -0.1875,-0.5 -0.78125,-0.65625 z" />
    <path
       class="district"
       id="southeast"
       d="m 330.3125,209.09375 -8.125,0.625 -40,3 c -0.0623,0.50296 -0.85869,7.15902 -0.5625,8.34375 0.30744,1.22975 -3.40118,7.6765 -3.09375,8.90625 0.30744,1.22976 1.5515,5.84881 2.78125,6.15625 1.22975,0.30744 4.00506,4.3015 4.3125,5.53125 0.30744,1.22975 0.59882,7.05657 0.90625,8.59375 0.30744,1.53719 0,8.90625 0,8.90625 l -2.40625,8.5625 c 0,0 -3.03668,12.81794 -3.90625,13.6875 -0.86956,0.86957 -5.43886,11.09918 -5.65625,11.96875 -0.21739,0.86956 0.65353,9.56793 0.21875,10.4375 -0.43478,0.86956 -4.125,5.21875 -4.125,5.21875 l -0.875,1.9375 c 0,0 -1.69763,2.16384 -2.3125,2.625 -0.61488,0.46115 -13.6875,6.28125 -13.6875,6.28125 0,0 -1.99319,0.17738 -5.375,-0.4375 -3.38182,-0.61487 -11.35796,4.28553 -19.8125,0.75 -8.45453,-3.53554 -18.6875,-0.5 -18.6875,-0.5 0,0 -10.01797,4.04961 -21.64841,9.3757 -11.63043,5.32609 -13.04045,17.13242 -13.04045,17.13242 0,0 -0.31112,8.22892 -1.12585,11.86356 -0.61041,3.17907 -1.34664,10.70628 -1.34664,10.70628 0,0 -13.35485,15.65562 -17.23551,16.44696 -11.56806,2.35897 -24.53893,-0.17496 -29.04667,3.95301 l -5.28757,4.10791 17.54355,0.38286 60.6875,0.0625 54.5,-0.0312 56.875,0.0625 0.0937,-0.0937 L 315,389.5 l 0.4375,-0.125 2.28125,1.5 0.34375,-0.125 0.6875,-0.78125 0.875,-0.5 0.84375,0.6875 2.09375,1.6875 0.40625,0.0937 0.4375,0.375 0.5,-0.1875 0.90625,-1 1.5625,-1.46875 1.71875,-1.09375 0.6875,-0.34375 0.5,0.125 0.96875,0.71875 1.6875,1.03125 0.8125,0.40625 1.8125,0.3125 1.5625,0.125 2.03125,-0.0312 0.75,0.75 0.75,0.15625 0.53125,-0.0625 0.4375,-0.0312 1.09375,0.21875 h 0.625 l 0.8125,0.28125 2.25,1 1.34375,-0.1875 0.75,0.15625 0.5,-0.0625 5.5625,0.1875 3.4375,-0.4375 0.25,-0.0312 0.375,-0.46875 v -0.375 l -0.15625,-0.28125 -0.40625,-0.4375 -0.40625,-0.3125 -0.375,-0.15625 -0.40625,-0.21875 -0.40625,-0.375 -1.03125,-0.84375 -0.59375,-0.125 -0.5625,-0.0312 -0.46875,0.15625 -0.59375,1.28125 -0.40625,0.65625 -0.1875,0.3125 -0.46875,0.25 -1.90625,0.875 -0.375,-0.0937 -0.71875,-0.5 -0.3125,-0.3125 -0.15625,-0.34375 -0.375,-1 -0.40625,-0.6875 -0.3125,-0.75 -0.125,-0.6875 -1.34375,-1.25 -1.59375,-0.75 0.0312,-2.9375 1.03125,-1.15625 1.65625,-3.125 1.0625,-1.21875 0.4375,-0.71875 0.53125,-0.5625 1,-1.125 0.28125,-0.3125 0.40625,-0.3125 2.09375,-3.03125 1.09375,-1.625 0.53125,-1 -0.375,-0.53125 -0.4375,-0.34375 -0.59375,-0.40625 -0.625,-0.59375 -0.625,-0.40625 -0.5625,-0.375 -1.0625,-0.65625 -0.5625,-0.34375 -0.90625,-0.5 -0.28125,-0.46875 -1.96875,-1.0625 -0.375,-0.375 -0.71875,-0.96875 -1.3125,-1 -0.75,-0.53125 -0.9375,-0.0312 -0.75,0.0625 -0.40625,-0.40625 -0.875,-1.28125 -1.09375,-0.75 -1.625,-0.8125 -0.375,-0.40625 -0.59375,-0.46875 -0.375,-1.03125 0.15625,-0.9375 0.90625,-0.84375 0.8125,-2.15625 -10.59375,-7.71875 1.25,-0.90625 10.84375,7.21875 2.75,1.28125 0.6875,-0.0937 1.375,-1.59375 0.59375,-1.75 1.0625,-0.625 0.40625,-1.59375 4,-1.5 1.75,0.3125 0.34375,1.46875 1.5,1.90625 0.71875,5.03125 0.84375,2.5 3.0625,2.28125 -0.125,2 0.65625,0.96875 4,-0.65625 1.96875,0.0625 3.5625,0.90625 -0.1875,0.84375 0.8125,1.0625 1.40625,0.96875 3.5,0.0937 2.0625,1.8125 2.09375,1.09375 0.625,1.15625 1.84375,1.5625 1.5625,-1.8125 0.78125,0.625 0.25,0.125 0.90625,-1.15625 3.28125,-4.5625 0.28125,-0.5 -0.9375,-1.09375 -1.9375,-1.4375 2.34375,-3.1875 6.9375,5.09375 1.9375,-2.78125 -11.8125,-8.71875 2.15625,-2.75 6.8125,5.09375 0.625,-0.84375 -6.75,-5.09375 0.8125,-1.5 -7.03125,-5.125 -0.21875,-0.5625 0.15625,-0.4375 0.375,-0.28125 0.46875,0.0937 7.1875,5.4375 1.28125,0.8125 9.25,-2.65625 -0.40625,-1.03125 -1.375,0.28125 -6.71875,2 -1.15625,-3.125 4.6875,-1.3125 4.84375,-1.5625 1.46875,-5.21875 0.625,-2.8125 -1,-0.375 -6.34375,1.9375 h -1.15625 l -0.0625,-0.28125 1,-0.625 6.25,-1.78125 -0.625,-1.0625 -10.09375,2.84375 -1,-0.0937 -0.0937,-0.4375 0.8125,-0.5625 7.34375,-2.125 0.125,-1.125 -0.40625,-0.40625 -1.59375,-0.8125 -5.0625,0.5 L 388,324.375 387.09375,323.5 389,320.8125 l -0.71875,-0.5 -1.9375,2.625 -1.3125,-0.84375 1.9375,-2.75 -0.65625,-0.4375 -2.09375,2.5625 -1.28125,-0.75 -2.40625,-1.8125 -1.15625,1.4375 -2.25,-1.65625 3.40625,-4.8125 -0.25,-0.28125 -3.34375,4.90625 -0.5625,-0.15625 -1.3125,1.09375 -1.96875,-0.625 -1.1875,1.09375 -2.34375,-0.75 0.15625,-1.0625 -1.96875,-1.28125 -2.4375,-2 -0.46875,-1.0625 -1.21875,-1.21875 h -0.78125 l -0.40625,0.40625 -0.625,1.125 -1.5625,1.40625 -2.53125,1.71875 -1.3125,-0.6875 -0.40625,-0.40625 -0.9375,0.53125 -0.28125,-0.5625 0.78125,-1.65625 v -0.34375 l 0.0937,-0.40625 0.3125,-0.34375 0.125,-0.375 -0.0312,-0.6875 -0.0625,-0.625 -0.1875,-0.1875 -0.4375,-0.3125 0.21875,-0.34375 0.1875,0.0625 0.1875,-0.0312 0.3125,-0.4375 v -0.3125 l -0.125,-0.21875 -0.1875,-0.0937 -0.25,-0.1875 0.21875,-0.1875 0.0312,-0.34375 -0.34375,-0.25 -0.1875,-0.0625 h -0.1875 l -0.21875,0.0937 -1.28125,1.03125 -0.25,-0.3125 -0.0625,-0.28125 0.46875,-1.03125 -0.1875,-0.75 0.0625,-0.40625 2.1875,-2.65625 0.34375,-1.40625 -0.125,-1.34375 -0.40625,-0.625 -2.625,-1.1875 -0.21875,0.21875 -0.65625,0.1875 -0.3125,-0.3125 -0.6875,-0.15625 -0.9375,1.1875 -0.5625,-0.375 0.3125,-0.65625 0.15625,-1.21875 2.28125,-3.8125 2.6875,1.65625 -0.0312,0.40625 -0.96875,1.34375 -1.34375,-0.28125 -0.34375,0.0625 -0.84375,0.9375 0.90625,0.53125 0.71875,-0.4375 h 0.25 l 1.25,0.1875 2.84375,1.71875 2.375,2.15625 3.15625,0.0937 1.0625,-0.125 1.3125,0.1875 1.0625,-0.875 2.75,-1.125 1.3125,-0.125 1.4375,-0.6875 1.4375,-0.15625 1.28125,-0.40625 -0.0625,-0.5 -2,0.28125 -3.4375,-0.0625 -2.65625,0.4375 h -1.53125 l -4.21875,-0.5625 -1.1875,-1.28125 -0.9375,-2.75 4.21875,-0.46875 2.34375,-0.15625 v 0.40625 l 7.5,-0.5625 v -0.53125 l 1.625,-0.3125 -0.71875,-1.03125 -2.875,-3.8125 -1.125,-1.375 -0.75,-1.3125 -1.21875,-1.21875 -1.5,-1.9375 -2.6875,-3.90625 -1.84375,-2.4375 -0.34375,0.1875 -1.59375,0.8125 -0.40625,0.40625 -0.40625,0.375 -1.375,-0.84375 -1.28125,-2.15625 0.15625,-0.59375 0.1875,-1.0625 -0.0625,-0.1875 L 356.25,273.40625 355.84375,273 l -1.46875,-0.875 -1.15625,-0.40625 -0.375,0.0625 h -0.28125 l -0.3125,-0.0625 -0.3125,0.125 -1.8125,-0.0625 -1.09375,-0.0312 -0.8125,0.125 -3.5,0.3125 -0.1875,-0.65625 -3.6875,0.28125 -2.25,0.15625 -1.4375,-0.3125 -10.8125,0.78125 -0.0937,-0.5625 -1.03125,0.0625 v 0.21875 l -1,0.3125 -0.75,-0.125 -1.28125,0.40625 -4.625,0.21875 -2.40625,-0.84375 -3.4375,-1.21875 v -0.4375 l -0.53125,-1.59375 0.6875,-1.46875 h 0.28125 l 0.71875,0.0312 h 0.40625 l 4.71875,2.5 4.9375,-0.46875 1.875,0.0312 0.25,0.71875 1.25,-0.0625 0.46875,-0.65625 1.125,-0.375 0.8125,-0.625 0.78125,-0.125 1.0625,-0.25 0.9375,0.0625 0.46875,-0.15625 0.28125,0.125 0.0312,0.4375 1.3125,-0.0312 3.5,-0.25 2.25,-0.1875 2.1875,-0.21875 1.65625,-0.125 1.28125,-0.15625 2,-0.0937 2.4375,-0.21875 1.28125,-0.0937 1.625,-0.0625 2.46875,-0.21875 -0.71875,-9.90625 -0.15625,-1.28125 -6.25,0.59375 -1.125,0.125 -0.875,-0.0625 -1.1875,0.0312 0.0312,-0.34375 -0.28125,-1.28125 -0.40625,-1.09375 -2.5625,-0.15625 -1.09375,-0.375 -0.59375,-0.53125 -2.3125,-0.3125 -0.1875,-3.5625 -1.34375,-0.75 -1.5625,0.1875 -0.0937,-1 6.34375,-0.59375 0.28125,0.1875 1.125,-0.125 0.4375,-0.28125 0.0312,-0.375 -0.0312,-0.4375 -0.28125,-0.53125 -0.90625,-0.75 -0.4375,-5.6875 0.5625,-1.28125 -0.21875,-3.53125 v -0.78125 l -0.125,-0.84375 0.75,-0.0625 v -0.28125 l -0.0312,-0.34375 -0.5625,0.0625 -1.25,0.1875 -0.0625,-1.3125 -0.28125,-1.46875 -0.5625,-0.4375 -1.28125,-1.625 -0.9375,-1.1875 -0.59375,-0.8125 5.75,-0.4375 -0.0625,-0.53125 h -1.46875 l -2.625,0.28125 -0.0312,-0.34375 -1.09375,0.0625 -0.5,0.0937 -0.375,0.0312 -0.5625,0.0625 -0.4375,-0.0312 h -0.25 l -0.59375,0.0625 -0.1875,0.53125 -0.90625,0.1875 -1.15625,-0.8125 -0.21875,-2.71875 -1.09375,-0.0937 h -0.8125 -0.78125 l -0.40625,-0.40625 -1.3125,-0.625 0.96875,-1.0625 -0.25,-0.25 0.71875,-1.3125 0.0312,-2.875 -0.40625,0.0625 0.8125,-1.15625 0.84375,-1.96875 0.3125,-1.53125 0.3125,-0.125 0.0937,-0.8125 0.46875,-0.0937 z"
       transform="scale(0.8)" />
    <path
       class="district"
       id="twin-peaks-merced"
       transform="scale(0.8)"
       d="m 176,215.3125 -19.28125,3.0625 -16.125,5.625 -5.21875,0.21875 c 0,0 1.21875,21.64638 1.21875,22.1875 0,0.54112 -0.65625,2.36215 -0.65625,4.09375 0,1.7316 1.34375,3.09375 1.34375,3.09375 l -3.375,0.125 L 105,255.25 l 2.4375,55.40625 c 0,0 -46.208113,2.7564 -50.1875,3.0625 -3.979389,0.30611 -8.282683,-0.58879 -11.34375,-3.34375 -3.061069,-2.75496 -10.84375,-1.96875 -10.84375,-1.96875 L 25.84375,308.75 v 0.15625 l 0.71875,2.59375 0.25,1.625 0.34375,3.34375 0.15625,1.59375 0.03125,1.875 v 1.375 1.65625 l 0.21875,1.65625 0.125,1.6875 0.03125,2.125 0.25,1.28125 -0.03125,2.8125 L 27.75,334 v 1.09375 l 0.1875,3.625 0.21875,3 0.5625,4 1.0625,5.875 0.46875,3.375 0.03125,0.90625 0.25,2.15625 1.34375,5.03125 0.28125,1.375 0.9375,2.84375 2.125,8.1875 0.40625,1.84375 0.46875,3.75 0.40625,2.28125 0.28125,1.125 0.34375,1.15625 0.46875,1.9375 0.375,1.28125 0.15625,1.03125 0.21875,1.4375 0.15625,0.90625 0.40625,1.4375 v 0.0312 l 16.8125,-0.0625 32.84375,0.0625 28.46875,-0.0312 c -0.0199,-0.31052 -0.0625,-0.73677 -0.0625,-0.9375 0,0 1.15886,1.86028 4.64607,0.0756 2.16498,-1.10797 5.28216,-4.8701 8.73375,-5.58076 2.33277,-0.4803 22.65597,-1.01795 25.3415,-1.57081 3.24138,-0.66728 14.77204,-14.16863 16.72717,-16.07767 1.59903,-1.56134 2.82543,-20.70728 2.80015,-23.36949 0,0 1.09033,-6.05391 4.52574,-10.5792 3.0092,-3.96388 12.40663,-8.70685 14.88893,-9.41269 1.27521,-0.3626 15.27424,-6.51621 15.27424,-6.51621 0,0 0.26811,-0.0723 0.46875,-0.125 0.0666,-0.0171 0.20109,-0.0427 0.28125,-0.0625 0.23195,-0.0565 0.84753,-0.003 1.1683,-0.0727 0,0 -1.71319,-0.82176 -2.45951,-0.92231 L 219.1563,312.31252 221.4375,311 c 0,0 -4.79723,-5.99876 -5.5625,-6.6875 -0.76526,-0.68874 -0.84571,-0.3125 -1.6875,-0.3125 -0.8418,0 -1.53125,-0.6875 -1.53125,-0.6875 L 210.5,300.625 c 0,0 -0.8093,-0.67223 -0.65625,-1.4375 0.15306,-0.76528 -0.47195,-1.82848 -0.625,-2.59375 -0.15305,-0.76527 -0.15625,-1.23474 -0.15625,-2 0,-0.76527 -1.52558,-0.7468 -2.75,-0.59375 -1.22442,0.15306 -0.69967,-1.29275 -0.375,-2.375 0.32467,-1.08225 -0.52598,-3.7661 -1.5,-5.28125 -0.97402,-1.51515 -6.60228,-5.85985 -8.875,-7.375 -2.27273,-1.51515 -1.1218,-4.3457 -0.96875,-5.1875 0.15305,-0.84179 -0.50835,-1.69709 -1.65625,-2.15625 -1.1479,-0.45916 -1.99822,0.4739 -4.90625,1.46875 -2.90801,0.99488 -2.75,-0.0625 -2.75,-0.0625 0,0 -1.16584,0.20475 -1.625,0.28125 -0.45916,0.0765 -1.84375,-0.6875 -1.84375,-0.6875 0,0 1.91265,-0.67667 2.21875,-0.90625 0.30611,-0.22958 0.71555,-3.0689 0.5625,-3.375 -0.15305,-0.30611 0.6907,-2.13139 0.84375,-2.4375 0.15306,-0.30611 1.0625,-2.46111 1.0625,-2.84375 0,-0.38262 2.0765,-10.41264 2,-10.71875 -0.0765,-0.3061 1.0485,-2.19389 1.125,-2.5 0.0765,-0.3061 2.30486,-4.75515 2.6875,-5.75 0.38262,-0.99485 -1.69389,-1.77042 -2,-2 -0.3061,-0.22958 -2.20028,-1.91779 -2.8125,-3.21875 -0.61221,-1.30095 -2.46875,-2.0625 -2.46875,-2.0625 0,0 -0.37695,-0.0797 -1.21875,-0.15625 -0.84179,-0.0765 -1.43625,-0.0581 -2.125,-0.59375 -0.68874,-0.53569 -1.39099,-0.764 -2.15625,-0.6875 -0.76528,0.0765 -0.5485,-0.83931 -0.625,-1.375 -0.0765,-0.53567 0.236,-2.98154 0.3125,-3.59375 0.0765,-0.61221 -0.20427,-2.12351 -0.3125,-2.71875 -0.10825,-0.59524 -0.875,-1.96875 -0.875,-1.96875 l -0.15625,-0.8125 c 0,0 -1.03125,-6.48782 -1.03125,-6.8125 0,-0.32467 -0.33766,-0.80033 -0.5,-1.125 C 176.18142,216.64408 176,215.3125 176,215.3125 Z M 48.46875,323.65625 H 49.125 l 0.5,0.625 0.5625,1.84375 1.5625,2.90625 1.125,1 1.8125,0.3125 2.78125,0.375 1.71875,1.78125 0.40625,0.21875 0.46875,0.1875 0.4375,0.0625 0.625,0.0312 0.15625,0.21875 0.1875,0.125 0.0625,0.25 0.25,0.53125 0.21875,0.21875 0.1875,0.0625 0.71875,-0.0937 0.1875,-0.0312 0.125,-0.15625 0.59375,-1.5 1.28125,0.0625 0.78125,-0.625 1.6875,-1.0625 1.34375,-0.75 1.4375,-0.96875 0.84375,-0.96875 0.6875,-0.3125 0.09375,0.53125 v 0.65625 l 0.03125,0.9375 0.84375,1.1875 0.65625,0.875 1.0625,0.71875 1.09375,-0.5 0.90625,-0.84375 1.0625,-0.84375 1,0.28125 0.875,0.9375 0.90625,0.6875 1.5,1.125 1.34375,0.5 0.28125,0.71875 -0.5,1.125 H 81.625 L 79.84375,335.8125 79.0625,335.15625 78,334.5 77,335.09375 76.03125,336.25 75.15625,336.09375 73.0625,335.875 70.96875,334.75 69.75,335.40625 h -2.125 l -1.34375,0.125 -1.53125,0.0312 -0.875,-0.21875 -0.28125,-0.625 -0.40625,-0.0937 -0.46875,-0.0625 -0.46875,0.0312 -0.21875,0.0625 -0.1875,0.0937 -0.15625,0.21875 -0.15625,0.46875 L 61.5,336 l 0.15625,0.46875 -1.125,1.59375 -2.6875,2.40625 -2.90625,1.5625 0.125,0.875 -1,-0.625 -0.59375,-1.65625 -2.71875,-1.59375 -0.09375,-1.34375 -0.75,-1.34375 -1.4375,-0.9375 -1.4375,-0.625 -1.96875,0.0937 -1.875,0.78125 -1.28125,-0.3125 0.75,-2.90625 3.9375,-7.4375 1.03125,-1.09375 0.84375,-0.25 z m -6,14.21875 0.5,0.125 2.34375,1.03125 2.5,2.125 1.90625,2.34375 1.5,2.125 0.78125,1 0.28125,0.0625 1.34375,2.375 1.34375,1.1875 1.5,0.34375 0.53125,0.34375 0.6875,0.46875 1.46875,0.5 1.75,0.15625 1.96875,0.125 h 0.5625 l 0.96875,0.5625 1.46875,1.625 1,1.4375 0.40625,1.25 0.21875,0.90625 0.375,0.96875 0.90625,1.4375 0.53125,0.78125 0.8125,1.5625 0.21875,0.125 0.15625,0.46875 0.5625,0.3125 0.15625,0.71875 0.875,0.46875 1.09375,0.125 1.9375,0.96875 2.6875,1.59375 -0.15625,0.15625 0.09375,0.21875 0.4375,-0.375 h 0.1875 l 0.46875,0.0937 -0.21875,0.59375 0.34375,0.375 0.53125,-0.1875 0.34375,0.125 0.78125,0.875 0.34375,0.75 0.375,0.96875 -1.78125,2.375 -1.5625,5.4063 -4.84375,1.15625 -13.5,-14.4375 -8.09375,-3.40625 0.40625,-1.6875 -6.8125,-9.78125 -1.65625,-1.25 -1.3125,-5.53125 -0.875,-1.96875 -0.78125,-0.78125 -0.21875,-0.25 0.0625,-0.3125 -0.15625,-0.46875 0.0625,-0.3125 -0.03125,-0.1875 0.03125,-0.21875 0.25,-0.25 0.46875,-0.625 0.3125,-0.3125 0.34375,-0.15625 0.15625,-0.15625 0.3125,-0.0312 0.34375,-0.0312 z m 34.25,42.71875 2.0625,0.34375 1.625,1.46875 0.4375,1.9375 -0.28125,1.25 -0.46875,1.5625 0.15625,1.40625 1.4375,0.6875 -0.0625,0.90625 -0.0625,1.40625 -0.96875,0.3125 -1.25,-0.59375 -1.3125,-1.71875 -0.6875,-1.59375 -1.125,-1.9375 -1.34375,-3.5 0.15625,-1.1875 z" />
    <path
       class="district"
       sodipodi:nodetypes="cccccccccsssssccccccsscccc"
       inkscape:connector-curvature="0"
       id="mission"
       transform="scale(0.8)"
       d="m 236.5,194.3125 -0.34375,0.0312 -3.46875,3.03125 -10.62848,10.47583 2.43763,29.22953 c 0.19937,0.30268 5.64385,-0.26153 5.64385,-0.26153 l 2.372,32.6802 51.61244,-1.78028 2.40625,-8.5625 c 0,0 0.30744,-7.36906 0,-8.90625 -0.30742,-1.53717 -0.59881,-7.364 -0.90625,-8.59375 -0.30744,-1.22975 -3.08275,-5.22381 -4.3125,-5.53125 -1.22975,-0.30744 -2.47381,-4.92649 -2.78125,-6.15625 -0.30743,-1.22975 3.40119,-7.6765 3.09375,-8.90625 -0.29619,-1.18473 0.50025,-7.84079 0.5625,-8.34375 l -0.28125,0.0312 -0.28125,-0.3125 -0.625,-4.625 -1.53125,-1.53125 -2.78125,-2.75 c 0,0 -5.21281,-0.32769 -6.75,-1.25 -1.53719,-0.92233 -8.93575,-0.59375 -12.625,-0.59375 -3.68925,0 -6.75,-1.53125 -6.75,-1.53125 0,0 -6.44675,-0.005 -8.90625,-0.3125 -2.03291,-0.25411 -4.36709,-4.13745 -5.15625,-5.53125 z" />
    <path
       class="district"
       inkscape:connector-curvature="0"
       id="castro-noe"
       d="m 183.4236,160.92095 -8.6986,0.77905 -10.4,0.75 h -5.275 l -9.675,4.175 -0.125,-0.5 -9.3,1.475 0.85,4.65 c 0,0 0.14514,1.06526 0.275,1.325 0.12987,0.25974 0.4,0.64026 0.4,0.9 0,0.25974 0.825,5.45 0.825,5.45 l 0.125,0.65 c 0,0 0.6134,1.09881 0.7,1.575 0.0866,0.47619 0.3112,1.68523 0.25,2.175 -0.0612,0.48977 -0.3112,2.44646 -0.25,2.875 0.0612,0.42855 -0.11222,1.1612 0.5,1.1 0.61221,-0.0612 1.17401,0.12145 1.725,0.55 0.551,0.42852 1.02657,0.4138 1.7,0.475 0.67344,0.0612 0.975,0.125 0.975,0.125 0,0 1.48523,0.60924 1.975,1.65 0.48978,1.04077 2.00512,2.39134 2.25,2.575 0.24489,0.18366 1.9061,0.80412 1.6,1.6 -0.30611,0.79588 -2.0888,4.35512 -2.15,4.6 -0.0612,0.24489 -0.9612,1.75512 -0.9,2 0.0612,0.24489 -1.6,8.2689 -1.6,8.575 0,0.30611 -0.72755,2.03011 -0.85,2.275 -0.12244,0.24489 -0.79744,1.70511 -0.675,1.95 0.12244,0.24488 -0.20511,2.51634 -0.45,2.7 -0.24488,0.18366 -1.775,0.725 -1.775,0.725 0,0 1.10767,0.6112 1.475,0.55 0.36733,-0.0612 1.3,-0.225 1.3,-0.225 0,0 -0.12641,0.8459 2.2,0.05 2.32642,-0.79588 3.00668,-1.54233 3.925,-1.175 0.91832,0.36733 1.44744,1.05157 1.325,1.725 -0.12244,0.67344 -1.04318,2.93788 0.775,4.15 1.81818,1.21212 6.32078,4.68788 7.1,5.9 0.77922,1.21212 1.45974,3.3592 1.2,4.225 -0.25974,0.8658 -0.67954,2.02245 0.3,1.9 0.97954,-0.12244 2.2,-0.13722 2.2,0.475 0,0.61221 0.003,0.98778 0.125,1.6 0.12244,0.61222 0.62245,1.46278 0.5,2.075 -0.12244,0.61222 0.525,1.15 0.525,1.15 l 1.725,2.15 c 0,0 0.55156,0.55 1.225,0.55 0.67343,0 0.73779,-0.30099 1.35,0.25 0.59682,0.53714 4.16615,4.99523 4.35,5.225 0.28177,-0.1111 0.71054,-0.30396 1.3,-0.725 1.21212,-0.8658 8.71837,-8.74649 9.23785,-12.03653 0.51948,-3.29004 -3.54541,-46.38497 -3.54541,-46.38497 l -4.36759,0.26878 -1.93785,-23.35386 z" />
    <path
       class="district"
       id="richmond"
       d="m 59.85,111.5 -1.175,0.2 -1.55,-0.325 -0.675,0.725 -0.525,0.6 -1,1.15 -1.475,0.95 -1.925,0.725 -0.325,-0.3 -0.45,0.225 -1.275,0.575 -1.025,-0.175 -0.375,-0.55 -0.325,-0.6 -0.325,0.025 -0.225,0.6 -1.625,0.9 -1.925,0.4 -1.5,-0.575 -0.925,-1.15 -0.1,0.425 -2.125,-1.4 -0.275,0.375 -0.575,-0.55 -0.65,-0.325 -1.1,0.475 -3.05,0.9 -3.725,0.175 -0.725,-0.275 -1.875,0.55 -0.475,-0.25 0.025,-0.25 -1.3,-0.375 -0.4,0.175 -0.1,1.425 -1.1,0.65 -0.325,-0.375 0.05,0.575 -0.975,0.875 -0.925,0.875 -0.775,0.825 -0.575,0.7 -1.25,0.75 -0.975,1.35 -0.275,0.7 h -0.375 l -0.425,0.525 -0.275,-0.45 -0.975,0.575 -1.025,-0.225 -0.45,0.925 -0.875,0.65 -0.375,0.6 -0.625,-0.775 -0.4,-0.25 -0.3,0.475 0.8,0.675 -0.9,0.6 v 1.175 l -0.4,0.8 -0.8,-0.25 -0.3,1.25 -0.575,1.525 0.175,0.775 -0.45,-0.275 -0.475,-0.025 -0.675,0.825 -0.125,0.325 0.1,0.3 0.15,0.25 0.55,0.7 0.2,0.8 v 0.5 l -0.075,0.65 0.125,0.325 -0.025,0.225 -0.35,1.1 -0.075,0.475 -0.1,0.75 0.125,0.65 0.1,0.375 0.125,0.3 0.625,0.25 0.15,0.125 0.05,0.225 0.425,0.4 0.275,0.125 0.3,0.375 0.725,0.725 0.125,0.275 0.05,0.325 0.025,0.35 0.625,3.2 0.125,1.1 0.25,2.375 0.1,4.2 c 0.967092,0.13595 -0.406751,2.9893 0.648942,2.95606 1.660551,-0.0523 5.760124,-0.30022 7.85724,-0.44504 2.410768,-0.16649 6.86369,-0.3713 10.327095,-0.57752 5.134808,-0.30574 17.690472,-0.87258 26.148385,-1.33213 6.127542,-0.33293 25.433575,-1.33333 28.40573,-1.48745 3.623406,-0.18788 8.662426,-0.44621 12.670318,-0.77663 2.58588,-0.21318 5.81219,-0.41772 8.13464,-0.57407 4.96443,-0.33422 9.4483,-1.86216 12.75765,-1.83839 l -0.95,-17.15 L 117.9,120.7 h -0.025 l -0.25,-3.2 c 0,0 -6.13857,0.31158 -7.03439,0.33569 -0.77275,0.0208 -7.74166,0.51037 -7.74166,0.51037 l -0.17611,-0.86717 c 0,0 -8.195748,0.4034 -8.805035,0.40698 -0.863679,0.005 -3.324153,-0.20666 -3.324153,-0.20666 l -0.383673,-1.30409 -2.952834,0.26966 0.150383,1.02601 c 0,0 -6.760474,-0.0831 -8.348264,-0.21306 -4.655804,-0.38115 -9.978997,-1.17608 -9.978997,-1.17608 -0.01684,-1.76815 0.372852,-3.13236 -0.821845,-4.51807 -0.623359,-0.72303 -2.144258,-0.0107 -3.236648,-0.10744 -1.17437,-0.10397 -2.226777,-0.0231 -2.312236,-0.13815 -0.969176,-1.30472 -2.255086,0.49732 -2.809538,-0.018 z M 9.1,134.075 9.5,134.1 v 0.2 H 9.575 L 9.6,134.125 H 9.825 L 10.1,134.3 v 0.2 0.275 L 9.875,135 l -0.05,0.2 -0.1,0.15 -0.1,0.2 -0.15,-0.025 -0.15,0.025 -0.2,-0.05 L 9.1,134.325 H 9.4 V 134.25 H 9.1 Z m -1.45,1.175 -0.325,0.025 0.125,0.2 -0.2,0.45 0.45,0.45 0.15,-0.3 0.025,-0.175 0.05,-0.175 -0.1,-0.375 z" />
    <path
       class="district"
       id="haight"
       d="m 193.75,147.1 -0.05,0.025 h -0.025 l -39.45,5.82677 -26.17964,4.64823 1.52962,9.10149 -2.675,0.39999 0.375,2.35001 -5.15,0.74999 c 0,0 0.10238,0.3079 -0.85,-0.125 -0.48139,-0.2188 -1.38053,-0.79124 -1.89585,-0.95794 -0.50417,-0.1631 -1.19499,0.0257 -2.06658,0.0187 -0.53777,-0.004 -9.50506,0.61255 -9.525,0.61255 l 0.525,9.275 L 108.3,179.45 c -3e-5,-6.2e-4 0,-0.075 0,-0.075 l 4.175,-0.175 12.9,-4.5 15.425,-2.45 -0.85,-4.65 9.3,-1.475 0.125,0.5 9.675,-4.175 h 5.275 l 10.4,-0.75 8.6986,-0.77905 2.7264,-3.02095 2.775,-2.425 0.275,-0.025 c -0.13248,-0.23399 -0.3,-0.5 -0.3,-0.5 l 5.2,-5.2 0.05,-0.05 z" />
    <path
       class="district"
       id="western-addition"
       d="m 190.9,108.85 0.025,0.1 -18.95,3.025 -26.075,4.175 -28,4.55 0.625,11.3 0.95,17.72483 7.025,-1.32306 c 0.14998,0.0247 1.25052,6.84663 1.25052,6.84663 l 26.14948,-3.99663 0.325,1.7 39.45,-5.82677 h 0.025 l -4.825,-30.6 h 0.075 l 3.225,-0.525 0.025,-0.05 -0.125,0.025 -0.95,-7.025 z m -1.95,7.675 4.75,30.6 0.05,-0.025 z" />
    <path
       class="district"
       transform="scale(0.8)"
       id="bernal"
       d="m 209.36509,318.50505 14.4919,-9.5094 c 0,0 4.06019,-3.51957 5.90481,-6.28651 1.84463,-2.76694 4.50575,-9.10654 4.50575,-9.10654 l -0.7686,-11.99007 -1.07603,-12.29751 51.70202,-1.59632 c 0,2.4595 -2.51198,11.12688 -2.51198,11.12688 0,0 -1.72346,2.75643 -2.76694,4.91901 -1.27279,2.63783 -3.95055,7.95034 -3.95055,10.1024 0,2.15207 0.2613,9.57361 0.2613,9.57361 l -4.50052,5.59065 -2.71147,4.4387 -8.11248,3.80263 c 0,0 -4.24517,1.65316 -6.09741,2.49977 -1.35057,0.61731 -3.4973,-0.27072 -4.57257,-0.27072 -2.76694,0 -5.6501,0.9223 -8.72447,1.53718 -1.08039,0.21608 -6.02912,0.49165 -8.48436,0.1393 -4.53145,-0.65029 -9.70936,-2.67306 -10.90576,-2.67306 -1.84463,0 -9.22313,0.92231 -9.22313,0.92231 z" />
    <path
       class="district"
       transform="scale(0.8)"
       id="chinatown-north-beach"
       d="m 251.125,89.5625 28.53125,-4.65625 2.80217,1.94447 6.68677,6.225614 16.44791,23.288406 -7.99457,1.9064 -15.67813,2.39773 2.69008,17.13965 -11.83635,1.99835 -5.76446,-36.35451 z" />
    <path
       class="district"
       d="m 46.434357,173.14752 -13.854478,1.21352 c -5.610601,-0.2591 -13.905434,-0.0344 -19.060812,0.0796 l 0.430934,3.78433 0.2,1.05 0.075,0.8 0.425,3.1 0.4,1.825 0.3,2.425 -0.025,1.45 -0.05,0.825 0.075,0.775 0.075,1.625 0.5,2.6 0.175,1.525 v 0.65 l 0.1,0.975 0.125001,0.9 0.05,1.1 0.075,1.95 0.05,1.675 0.075,0.75 0.05,0.47501 0.124999,0.24999 0.175001,0.525 0.025,1.075 0.05,0.575 0.45,1.17501 0.075,0.69999 -0.025,1.125 0.325001,1.25 0.124999,0.375 0.15,0.75 0.325001,2.975 0.1,2.425 0.25,3.3 0.325001,2.55 0.15,0.875 0.124999,0.775 0.275,2.8 0.075,0.65 -0.075,1.275 0.100001,0.925 0.124999,0.70001 0.550001,2.1 0.25,1.09999 0.025,0.55001 -0.3,4.5 0.125,2.42499 v 0.775 l 0.15,3.8 7.375001,-0.275 c 0,0 6.226145,-0.62896 8.675,1.575 2.448854,2.20397 5.891489,2.91989 9.075,2.675 1.591755,-0.12243 11.635439,-0.7431 21.275001,-1.325 9.639562,-0.58189 18.875,-1.125 18.875,-1.125 l -1.95,-44.325 23.124994,-1.22499 2.7,-0.10001 c 0,0 -0.41006,-0.41754 -0.725,-1.075 -0.063,-0.13149 -0.12461,-0.27652 -0.175,-0.425 -0.10078,-0.29697 -0.175,-0.62868 -0.175,-0.975 0,-1.38528 0.525,-2.8421 0.525,-3.275 0,-0.43108 -0.96686,-17.53032 -0.975,-17.675 l -0.075,-0.075 c -0.39146,-4.32179 -0.16682,-6.21237 -0.44561,-9.41207 -0.26487,-3.03992 -9.762141,0.69795 -20.188257,0.81919 l -19.000425,1.42607 c -10.112996,0.54021 -14.643794,0.64305 -22.156351,0.93933 z m 11.190644,70.67749 h 0.125001 l 0.1,0.025 0.075,0.075 0.85,0.4 1.150001,0.425 0.975,0.2 0.075,0.075 v 0.15 l -0.025,0.15 -0.2,0.25 -0.225,0.125 -0.6,0.25 -0.550001,0.15 -0.3,0.025 -0.699999,-0.1 -0.500001,-0.3 -0.274999,-0.275 -0.2,-0.2 -0.1,-0.1 -0.05,-0.15 -0.15,-0.5 -0.025,-0.225 0.025,-0.125 0.1,-0.1 0.15,-0.1 0.175001,-0.075 z"
       id="sunset"
       inkscape:connector-curvature="0" />
    <path
       class="district"
       d="m 126.5,148.40177 -19.175,3.1 -0.775,0.125 -0.75,0.0749 -12.450002,0.775 -80.17797,4.28097 0.378911,3.23574 -0.02594,3.78162 -0.0057,2.77588 0.05565,3.02412 0.125,1.85 -0.0061,1.3023 0.07421,1.96914 2.856923,0.005 7.375,-0.24996 18,-1.025 35.925001,-1.95 4.424999,-0.275 h 0.15 l 13.950003,-0.75 8.224995,-0.525 14.4,-0.775 1.075,0.325 1.125,0.6 0.85,0.125 0.6,-0.025 4.55,-0.72499 -0.375,-2.35001 2.675,-0.39999 -1.35,-8.45001 -0.325,-2.14999 -1.15,-7.575 -0.1,-0.10001 -0.15,-0.025 z m 27.4,2.85 -0.75,0.125 -21.9,3.4 -3.49948,0.47163 0.29484,2.3516 26.17964,-4.64823 z"
       id="golden-gate-park"
       inkscape:connector-curvature="0" />
    <path
       class="district"
       d="m 82.075,57.001671 -0.549999,0.05 -1.300001,0.125 -1.35,7.55 -1.099999,6.9 -1.35,5 -1.675001,6.45 -3.9,8.55 -3.125,9.624999 -6.275,9.7 0.025,0.225 0.225,0.15 0.199999,0.025 0.5,0.075 0.325,0.1 0.275,-0.375 0.15,-0.05 5.350001,0.725 0.424999,4.85 10.175,0.9 8.175001,0.175 v -1 l 2.974999,-0.325 0.125,1.425 3.525,0.15 10.050001,-0.55 -0.8,-3 16.2,-4.575 5.125,-1.375 5.725,-1.6 9.8,-2.45 3.125,-0.75 -2.3,-20.574997 -3.05,-3.45 -0.625,-1 -0.175,-0.6 -0.125,-1.27492 0.225,-1.075 2.025,-3.925 -0.425,-3.95 H 138.3 l -0.375,-0.15 -0.8,0.15 -0.875,0.124999 -1.025,0.275 -1.175,0.625 -0.975,0.25 -1.125,0.3 -0.475,0.025 -0.725,0.125 -0.6,-0.025 -0.5,-0.025 h -0.325 l -0.425,0.199999 -0.575,0.200001 -0.175,0.2 -0.1,0.3 -0.025,0.225 -0.55,0.1 v -0.275001 l 0.075,-0.85 0.125,-0.2 0.175,-0.175 -0.225,-0.125 -0.15,-0.225 -0.55003,0.1 -0.875,0.25 -1.025,0.4 -1.025,0.35 -0.925,0.2 -0.525,0.175 -0.475,0.1 -0.47497,0.075 -0.4,0.025 -1.2,0.375 -0.95,0.325 -1.3,0.2 -1.025,0.225 -1.675,0.375 -1.05,0.275 -1.1,0.2 -0.45,-0.05 -0.25,-0.05 -0.45,-0.15 -0.525,0.05 -0.55,0.175 -0.75,0.125 -0.75,0.075 -0.425,-0.075 -0.525,-0.2 -0.525,-0.4 -0.825,-0.675 -1,-0.75 -1.15,-0.95 -0.725,-0.5 -0.625,-0.3 -0.9,-0.550001 -0.75,-0.45 -0.575,-0.249994 -0.725,-0.2 -0.649999,-0.025 -0.675,-0.1 -0.350003,-0.125003 -0.249997,-0.2 -0.3,-0.525 -0.325001,-0.575 -0.349999,-0.525 -0.45,-0.525 -0.6,-0.55 -0.575,-0.425 -0.7,-0.5 -1.450001,-0.650002 -1.524999,-0.325 -1.2,-0.275 -1.225001,-0.175 -0.4,-0.025 -1.025,0.025 h -0.349999 l -0.850001,-0.15 -0.249999,-0.075 -0.375,-0.175 -0.975,-0.275 -0.275001,-0.1 -0.75,-0.4 -0.15,-0.1 -0.15,-0.475 -0.1,-0.275 v -0.35 l -0.07496,-0.425 -0.05,-0.3 -0.250001,-0.8 -0.1,-0.25 -0.3,-0.425 -0.42504,-0.15 -0.525,-0.175 z"
       id="presidio"
       inkscape:connector-curvature="0" />
    <path
       inkscape:connector-curvature="0"
       class="district"
       d="m 31.124996,314.925 c 0.592626,3.67906 1.95033,7.38436 2.775003,11.05946 0.880887,4.78921 1.921848,9.53712 2.435031,14.39069 1.964266,7.51869 2.681965,15.29806 4.66962,22.82607 1.019223,4.27657 2.120373,8.45528 2.337818,12.87434 1.342557,4.7848 1.023338,9.82899 1.432531,14.74944 72.058331,0 144.116671,0 216.175001,0 -2.85349,-1.23318 -1.6386,-5.30922 -2.54898,-7.82567 -0.67084,-4.7791 -1.97072,-9.7505 -2.40779,-14.43515 -1.36261,-7.1237 -3.29586,-14.5549 -3.96804,-21.98917 -1.506,-4.16335 -0.55953,-8.60771 -2.17498,-12.67501 -1.6037,-3.42426 -0.29894,-7.20833 0.7749,-10.65 0.56791,-3.29433 -4.68716,-4.00391 -3.18491,-6.875 0.75915,-3.45223 -12.06096,-0.62406 -16.73094,-1.58217 -57.65591,-0.30776 -115.31249,-0.70812 -172.967274,-0.0558 -8.87233,0.0627 -17.74466,0.12533 -26.61699,0.18799 z M 251.35,365.57497 c 2.84914,0.0755 1.79881,3.38006 2.4498,4.6499 0.89194,3.47958 0.8851,7.13217 1.5,10.6 0.51725,2.77329 0.95391,5.42404 1.72505,8.17526 -0.25726,3.36249 -3.96414,-0.58648 -4.87198,-1.41832 -1.9166,-1.83472 -3.01333,-4.15403 -4.40307,-6.38183 -0.78553,-2.18342 -2.33967,-3.94348 -3.825,-5.775 -1.8167,-2.70901 -3.54266,-5.58424 -5.675,-8.175 1.45416,-2.50442 5.20433,-0.77979 7.70832,-1.5331 1.79796,-0.30444 3.62773,0.46369 5.39188,-0.14191 z"
       id="south-sf" />
  </g>
  </svg>
